<svg width="33" height="37" viewBox="0 0 33 37" fill="none" xmlns="http://www.w3.org/2000/svg">
<path d="M29.5893 0H2.52181C1.13129 0 0 0.973073 0 2.16913V34.7061C0 35.9022 1.13129 36.8752 2.52181 36.8752H29.5893C30.9798 36.8752 32.1111 35.9022 32.1111 34.7061V2.16913C32.1111 0.973073 30.9798 0 29.5893 0ZM29.8366 34.9842H2.22138V2.16913H29.75C29.7516 35.4181 29.8972 35.6311 29.8366 34.9842Z" fill="url(#paint0_linear)"/>
<path d="M20.7628 14.4608C17.3105 14.4608 14.5264 16.9988 14.8167 20.0207C14.7841 20.1716 14.7946 19.5421 14.7946 30.0062C14.7946 30.7762 15.7039 31.3017 16.5327 31.0101L20.7628 29.5225L24.993 31.0102C25.8193 31.3006 26.7311 30.779 26.7311 30.0062V19.5944C26.7311 16.7638 24.0537 14.4608 20.7628 14.4608ZM20.8418 16.1733C22.7422 16.1733 24.6024 18.0969 24.6024 19.7314C24.6024 21.366 22.7422 22.9661 20.8418 22.9661C18.9415 22.9661 17.0812 21.366 17.0812 19.7314C17.0812 18.0969 18.9415 16.1733 20.8418 16.1733ZM21.2401 27.3469C20.9342 27.2394 20.5915 27.2394 20.2856 27.3469L17.3164 28.3911V23.7816C19.3824 25.0435 22.1412 25.0448 24.2093 23.7816V28.3911L21.2401 27.3469Z" fill="url(#paint1_linear)"/>
<path d="M25.4703 5.20605H6.64079C5.94443 5.20605 5.37988 5.54638 5.37988 5.96617C5.37988 6.38596 5.94443 6.72629 6.64079 6.72629H25.4703C26.1667 6.72629 26.7313 6.38596 26.7313 5.96617C26.7313 5.54638 26.1667 5.20605 25.4703 5.20605Z" fill="url(#paint2_linear)"/>
<path d="M25.4703 9.8335H6.64079C5.94443 9.8335 5.37988 10.1738 5.37988 10.5936C5.37988 11.0134 5.94443 11.3538 6.64079 11.3538H25.4703C26.1667 11.3538 26.7313 11.0134 26.7313 10.5936C26.7313 10.1738 26.1667 9.8335 25.4703 9.8335Z" fill="url(#paint3_linear)"/>
<path d="M10.9722 14.6055H6.3439C5.81137 14.6055 5.37964 14.9458 5.37964 15.3656C5.37964 15.7855 5.81137 16.1258 6.3439 16.1258H10.9722C11.5047 16.1258 11.9364 15.7855 11.9364 15.3656C11.9364 14.9458 11.5047 14.6055 10.9722 14.6055Z" fill="url(#paint4_linear)"/>
<path d="M10.6757 19.0884H6.64079C5.94443 19.0884 5.37988 19.4287 5.37988 19.8485C5.37988 20.2683 5.94443 20.6087 6.64079 20.6087H10.6757C11.3721 20.6087 11.9366 20.2683 11.9366 19.8485C11.9366 19.4287 11.3721 19.0884 10.6757 19.0884Z" fill="url(#paint5_linear)"/>
<path d="M10.6757 23.7158H6.64079C5.94443 23.7158 5.37988 24.0562 5.37988 24.476C5.37988 24.8957 5.94443 25.2361 6.64079 25.2361H10.6757C11.3721 25.2361 11.9366 24.8957 11.9366 24.476C11.9366 24.0562 11.3721 23.7158 10.6757 23.7158Z" fill="url(#paint6_linear)"/>
<path d="M10.6757 28.3434H6.64079C5.94443 28.3434 5.37988 28.6837 5.37988 29.1035C5.37988 29.5233 5.94443 29.8636 6.64079 29.8636H10.6757C11.3721 29.8636 11.9366 29.5233 11.9366 29.1035C11.9366 28.6837 11.3721 28.3434 10.6757 28.3434Z" fill="url(#paint7_linear)"/>
<defs>
<linearGradient id="paint0_linear" x1="16.0556" y1="0" x2="16.0556" y2="36.8752" gradientUnits="userSpaceOnUse">
<stop stop-color="#FF914D" stop-opacity="0"/>
<stop offset="0.0001" stop-color="#FF914D" stop-opacity="0.411139"/>
<stop offset="0.078125" stop-color="#FF914D" stop-opacity="0.568339"/>
<stop offset="0.244792" stop-color="#FF914D" stop-opacity="0.729624"/>
<stop offset="0.432292" stop-color="#FF914D" stop-opacity="0.890909"/>
<stop offset="0.942708" stop-color="#FF914D" stop-opacity="0.968271"/>
<stop offset="0.9999" stop-color="#FF914D" stop-opacity="0.984211"/>
<stop offset="1" stop-color="#FF914D"/>
</linearGradient>
<linearGradient id="paint1_linear" x1="20.7621" y1="14.4608" x2="20.7621" y2="31.0918" gradientUnits="userSpaceOnUse">
<stop stop-color="#FF914D" stop-opacity="0"/>
<stop offset="0.0001" stop-color="#FF914D" stop-opacity="0.411139"/>
<stop offset="0.078125" stop-color="#FF914D" stop-opacity="0.568339"/>
<stop offset="0.244792" stop-color="#FF914D" stop-opacity="0.729624"/>
<stop offset="0.432292" stop-color="#FF914D" stop-opacity="0.890909"/>
<stop offset="0.942708" stop-color="#FF914D" stop-opacity="0.968271"/>
<stop offset="0.9999" stop-color="#FF914D" stop-opacity="0.984211"/>
<stop offset="1" stop-color="#FF914D"/>
</linearGradient>
<linearGradient id="paint2_linear" x1="16.0556" y1="5.20605" x2="16.0556" y2="6.72629" gradientUnits="userSpaceOnUse">
<stop stop-color="#FF914D" stop-opacity="0"/>
<stop offset="0.0001" stop-color="#FF914D" stop-opacity="0.411139"/>
<stop offset="0.078125" stop-color="#FF914D" stop-opacity="0.568339"/>
<stop offset="0.244792" stop-color="#FF914D" stop-opacity="0.729624"/>
<stop offset="0.432292" stop-color="#FF914D" stop-opacity="0.890909"/>
<stop offset="0.942708" stop-color="#FF914D" stop-opacity="0.968271"/>
<stop offset="0.9999" stop-color="#FF914D" stop-opacity="0.984211"/>
<stop offset="1" stop-color="#FF914D"/>
</linearGradient>
<linearGradient id="paint3_linear" x1="16.0556" y1="9.8335" x2="16.0556" y2="11.3538" gradientUnits="userSpaceOnUse">
<stop stop-color="#FF914D" stop-opacity="0"/>
<stop offset="0.0001" stop-color="#FF914D" stop-opacity="0.411139"/>
<stop offset="0.078125" stop-color="#FF914D" stop-opacity="0.568339"/>
<stop offset="0.244792" stop-color="#FF914D" stop-opacity="0.729624"/>
<stop offset="0.432292" stop-color="#FF914D" stop-opacity="0.890909"/>
<stop offset="0.942708" stop-color="#FF914D" stop-opacity="0.968271"/>
<stop offset="0.9999" stop-color="#FF914D" stop-opacity="0.984211"/>
<stop offset="1" stop-color="#FF914D"/>
</linearGradient>
<linearGradient id="paint4_linear" x1="8.65804" y1="14.6055" x2="8.65804" y2="16.1258" gradientUnits="userSpaceOnUse">
<stop stop-color="#FF914D" stop-opacity="0"/>
<stop offset="0.0001" stop-color="#FF914D" stop-opacity="0.411139"/>
<stop offset="0.078125" stop-color="#FF914D" stop-opacity="0.568339"/>
<stop offset="0.244792" stop-color="#FF914D" stop-opacity="0.729624"/>
<stop offset="0.432292" stop-color="#FF914D" stop-opacity="0.890909"/>
<stop offset="0.942708" stop-color="#FF914D" stop-opacity="0.968271"/>
<stop offset="0.9999" stop-color="#FF914D" stop-opacity="0.984211"/>
<stop offset="1" stop-color="#FF914D"/>
</linearGradient>
<linearGradient id="paint5_linear" x1="8.65825" y1="19.0884" x2="8.65825" y2="20.6087" gradientUnits="userSpaceOnUse">
<stop stop-color="#FF914D" stop-opacity="0"/>
<stop offset="0.0001" stop-color="#FF914D" stop-opacity="0.411139"/>
<stop offset="0.078125" stop-color="#FF914D" stop-opacity="0.568339"/>
<stop offset="0.244792" stop-color="#FF914D" stop-opacity="0.729624"/>
<stop offset="0.432292" stop-color="#FF914D" stop-opacity="0.890909"/>
<stop offset="0.942708" stop-color="#FF914D" stop-opacity="0.968271"/>
<stop offset="0.9999" stop-color="#FF914D" stop-opacity="0.984211"/>
<stop offset="1" stop-color="#FF914D"/>
</linearGradient>
<linearGradient id="paint6_linear" x1="8.65825" y1="23.7158" x2="8.65825" y2="25.2361" gradientUnits="userSpaceOnUse">
<stop stop-color="#FF914D" stop-opacity="0"/>
<stop offset="0.0001" stop-color="#FF914D" stop-opacity="0.411139"/>
<stop offset="0.078125" stop-color="#FF914D" stop-opacity="0.568339"/>
<stop offset="0.244792" stop-color="#FF914D" stop-opacity="0.729624"/>
<stop offset="0.432292" stop-color="#FF914D" stop-opacity="0.890909"/>
<stop offset="0.942708" stop-color="#FF914D" stop-opacity="0.968271"/>
<stop offset="0.9999" stop-color="#FF914D" stop-opacity="0.984211"/>
<stop offset="1" stop-color="#FF914D"/>
</linearGradient>
<linearGradient id="paint7_linear" x1="8.65825" y1="28.3434" x2="8.65825" y2="29.8636" gradientUnits="userSpaceOnUse">
<stop stop-color="#FF914D" stop-opacity="0"/>
<stop offset="0.0001" stop-color="#FF914D" stop-opacity="0.411139"/>
<stop offset="0.078125" stop-color="#FF914D" stop-opacity="0.568339"/>
<stop offset="0.244792" stop-color="#FF914D" stop-opacity="0.729624"/>
<stop offset="0.432292" stop-color="#FF914D" stop-opacity="0.890909"/>
<stop offset="0.942708" stop-color="#FF914D" stop-opacity="0.968271"/>
<stop offset="0.9999" stop-color="#FF914D" stop-opacity="0.984211"/>
<stop offset="1" stop-color="#FF914D"/>
</linearGradient>
</defs>
</svg>
