<svg width="22" height="22" viewBox="0 0 22 22" fill="none" xmlns="http://www.w3.org/2000/svg">
<path d="M17 11C17 14.3137 14.3137 17 11 17C7.68629 17 5 14.3137 5 11C5 7.68629 7.68629 5 11 5C14.3137 5 17 7.68629 17 11ZM6.75997 11C6.75997 13.3417 8.65829 15.24 11 15.24C13.3417 15.24 15.24 13.3417 15.24 11C15.24 8.65829 13.3417 6.75997 11 6.75997C8.65829 6.75997 6.75997 8.65829 6.75997 11Z" fill="white"/>
<path d="M18.6001 4.6499C18.6001 5.34026 18.0405 5.8999 17.3501 5.8999C16.6597 5.8999 16.1001 5.34026 16.1001 4.6499C16.1001 3.95955 16.6597 3.3999 17.3501 3.3999C18.0405 3.3999 18.6001 3.95955 18.6001 4.6499Z" fill="white"/>
<rect x="1" y="1" width="20" height="20" rx="5" stroke="white" stroke-width="2"/>
</svg>
