<svg width="25" height="25" viewBox="0 0 25 25" fill="none" xmlns="http://www.w3.org/2000/svg">
<path d="M7.76294 20C10.1281 21.2581 13.157 22.1206 15.7631 21.5C18.3691 20.8794 20.7074 19.5299 22.2516 17.3408C23.7959 15.1518 24.4882 12.4744 24.1987 9.81119C23.9091 7.14796 22.6577 4.68192 20.6791 2.87583C18.7006 1.06973 16.1309 0.0477414 13.4524 0.00163104C10.7739 -0.0444793 8.1706 0.888461 6.13105 2.62538C4.09151 4.36231 2.75592 6.78381 2.3749 9.4355C1.99389 12.0872 2.79497 14.7591 4.26295 17L5.76294 16.5C4.54002 14.6332 3.87512 11.9057 4.19253 9.69667C4.50994 7.48765 5.62258 5.47038 7.32164 4.02341C9.02071 2.57644 11.1894 1.79924 13.4208 1.83766C15.6522 1.87607 17.7929 2.72745 19.4411 4.23204C21.0894 5.73663 22.1319 7.79101 22.3731 10.0096C22.6143 12.2283 22.0376 14.4587 20.7511 16.2823C19.4647 18.1059 17.5569 19.3974 15.3859 19.9144C13.2149 20.4314 10.2333 19.5481 8.26295 18.5L7.76294 20Z" fill="white"/>
<path fill-rule="evenodd" clip-rule="evenodd" d="M18.6027 16.1128C18.7107 16.0416 18.7984 15.9438 18.8588 15.8294C19.3094 14.9752 19.6971 13.4909 18.7629 13.3618L16.9156 12.5658C16.8149 12.5224 16.7064 12.5 16.5967 12.5C16.383 12.5 16.1781 12.5849 16.027 12.736L15.2726 13.4904C14.9682 13.7947 14.5033 13.8702 14.1183 13.6777L13.8436 13.5403C13.7899 13.5135 13.7388 13.4819 13.6908 13.4459L11.8772 12.0857C11.8014 12.0289 11.7341 11.9615 11.6772 11.8857L10.4763 10.2845C10.3485 10.114 10.3488 9.88609 10.4942 9.73022C11.033 9.15243 12.0329 8.31724 10.763 6.00006C9.8495 4.84626 9.35325 4.96596 8.51196 5.37643C8.34867 5.4561 8.21013 5.58062 8.11767 5.73703C6.98086 7.66021 6.88144 9.63825 9.76298 13.0001C13.1713 16.4083 16.5795 17.4459 18.6027 16.1128Z" fill="white"/>
<path d="M2.06073 21.5834L4.48184 15.1213L6 16.3157L5 18.3157L4.5 19.3157L8 18.1313L8.99992 19.6314L2.06073 21.5834Z" fill="white"/>
<path d="M2.06073 21.5834L4.48184 15.1213L6 16.3157L5 18.3157L4.5 19.3157L8 18.1313L8.99992 19.6314L2.06073 21.5834Z" stroke="white"/>
</svg>
